<svg xmlns="http://www.w3.org/2000/svg" width="378.8" height="375.9" viewBox="0 0 378.8 375.9"><g id="Layer_2" data-name="Layer 2"><g id="Layer_1-2" data-name="Layer 1"><path d="M219.6,375.9V242.8h44.3c2.9-17.8,5.8-35.1,8.8-53.5H218.5c.9-16.4.7-32,3-47.2,1.9-12.2,13.3-18.8,27.8-19.1,7.5-.2,14.9,0,23,0V76.9c-21.7-3.6-43.4-6.9-65.1-.8-26.6,7.6-44.4,28.7-46.7,56.2-1.3,15.1-1.1,30.2-1.5,45.3-.1,3.4,0,6.9,0,11.4H113.1v53.2h45.2V375.3C86.2,367,3.6,299,.1,195.6S74.6,6,177.4.3C282.5-5.5,370.2,70.6,378.2,174,386.6,283.7,305.8,363.5,219.6,375.9Z" fill="#fff"/></g></g></svg>