<svg xmlns="http://www.w3.org/2000/svg" width="386" height="385.9" viewBox="0 0 386 385.9"><path d="M129.4 0h127.2c1.2.2 2.4.5 3.6.6C272.5 1.7 285 1.7 297.1 4c44.1 8.2 72.4 34 83.6 77.9 4.9 18.9 4.9 38.4 5.1 57.7.3 37.9.3 75.8-.3 113.7-.2 14.7-.8 29.7-3.5 44.1-8.2 44-34.1 72.2-77.8 83.3-18.8 4.8-38.2 5-57.4 5.1-40.2.3-80.3-.1-120.5-.4-15.2-.1-30.4-1.1-45.2-4.8-32.2-8.2-55.9-26.9-69.5-57.5-7.7-17.3-10-35.8-10.7-54.5-.2-4-.6-8-.9-12V129.4a22.5 22.5 0 0 0 .6-3.6c.5-14.9 1.1-29.8 4.8-44.4C13.6 48.6 32.7 24.7 64 11.1 81 3.8 99.1 1.6 117.4.9zm63.3 351.5v-.6c16.2 0 32.4.4 48.6-.1s30.3-.9 45.4-2.4 27.9-6.7 39.2-16.6c15.5-13.6 22-31.5 23.2-51.2 1.4-22.7 1.7-45.4 2-68.1s.2-45.2-.3-67.7c-.3-15.2-.9-30.4-2.4-45.5s-6.6-27.7-16.3-38.9c-13.7-15.7-31.6-22.3-51.5-23.5-22.7-1.3-45.4-1.7-68.1-2s-45.2-.1-67.7.3c-15.2.3-30.4 1-45.5 2.5S71.6 44.2 60.4 54c-15.7 13.6-22.3 31.6-23.5 51.5-1.3 22.6-1.7 45.3-2 68s-.2 45.2.3 67.8c.5 16.7.8 33.5 3.4 49.9 4.4 28.1 20.6 47.1 48.5 54.6a130.5 130.5 0 0 0 27.9 4.1c25.9.9 51.8 1.1 77.7 1.6z"/><path d="M292.2 193.2a99.2 99.2 0 1 1-98.8-99.4 99.1 99.1 0 0 1 98.8 99.4zm-99-64.4c-35.2 0-64.3 28.7-64.4 63.4s28.5 65 63.8 65 64.6-28.6 64.6-63.9-28.7-64.5-64-64.5zm126.1-38.7A23.3 23.3 0 1 1 296 66.8a23.3 23.3 0 0 1 23.3 23.3z"/></svg>