<svg xmlns="http://www.w3.org/2000/svg" width="509.8" height="509.8" viewBox="0 0 509.8 509.8"><path fill="#fff" d="M81.8 383.7H62.5v-44.5h3.7v41.1h15.6zm34.5 0h-4l-3.6-13.6H95l-3.6 13.6h-3.7l12.5-44.6h3.6zm-8.5-16.9l-5.9-22.2-6 22.2zm27.2 17.6c-5.5 0-9.3-2.7-12.1-5.9l2.4-2.9c2.8 3.1 5.5 5.5 9.8 5.5s7.5-3.3 7.5-8.1-2.1-7.2-8.1-10.3-10.4-6-10.4-13.1 3.8-11 10.7-11c4.8 0 7.8 2.1 10.5 5l-2.4 2.9c-2.6-2.9-4.8-4.6-8.4-4.6s-6.6 3.4-6.6 7.2 2.7 7.2 8.3 10.1 10.2 6.1 10.2 13.4-4.9 11.8-11.4 11.8zm46.5-.7h-3.7v-21.5h-18v21.5h-3.7v-44.5h3.7v19.7h18v-19.7h3.7zm56.5.4c-3.5 0-6.6-1.4-9.9-4.9-2.9 3.1-6.5 5-10.4 5-7.2 0-11.6-4.3-11.6-11.3 0-5.5 2.9-9.7 8.5-13.4a23.8 23.8 0 0 1-2.9-11c0-5.7 3.7-10.5 9.1-10.5s8.5 3.6 8.5 9-3.2 9.2-8.7 12.8a92.2 92.2 0 0 0 8.1 12.2 37.2 37.2 0 0 0 3.8-11.8l3.9 1.7a36.8 36.8 0 0 1-5.2 13.4c2.7 3.3 5 4.5 8.1 4.8zm-21.4-21.4a10.7 10.7 0 0 0-5 9.5c0 5 2.8 7.8 7.2 7.8 2.5 0 4.8-1.4 6.8-3.7a118.8 118.8 0 0 1-9-13.6zm4.2-21c-2.9 0-4.2 3.1-4.2 6.4a18.1 18.1 0 0 0 2.2 8.7c4-2.6 5.9-5.6 5.9-9.5s-1.4-5.6-3.9-5.6zm51.1 42h-9.6v-44.5h9.6c7.4 0 12.5 3.6 12.5 11s-3.4 8.9-7 10.2c5 1.1 8.6 4.3 8.6 11 0 8.3-5.4 12.3-14.1 12.3zm-.6-41.3H266V359h5.4c6.2 0 9.3-2.8 9.3-8.7s-3.3-7.9-9.4-7.9zm.6 19.7H266v18.4h6.1c6.9 0 10.3-2.7 10.3-9.1s-3.5-9.3-10.5-9.3zm43.9 21.6h-20.7v-44.5H315v3.4h-16.2v16.3H312v3.3h-13.2v18.1h17zm34.9 0h-4l-3.6-13.6h-13.7l-3.6 13.6h-3.7l12.4-44.6h3.7zm-8.5-16.9l-6-22.2-5.9 22.2zm41.7 3.9c0 7.6-4.3 13.5-12.9 13.5s-12.6-5.9-12.6-13.2v-31.8h3.7v30.9c0 6.3 2.5 10.8 9.2 10.8s9.2-4.2 9.2-10.1v-31.6h3.4zm33.9-28.1h-11.3v41.1h-3.7v-41.1h-11.1v-3.4h26.1zm32.6-3.4l-12.1 25.3v19.2h-3.6v-19.2l-12.1-25.3h4l10.1 21.8 9.9-21.8zm-307.7-62.4l-65.5-.2-24.8.2v-1.9l11.2-.2c3 0 3.4-2.4 3.4-4.3V133.9c0-1.9-.4-4.3-3.4-4.3l-11.2-.2v-2l24.8.2 24.3-.2v2l-11 .2c-3 0-3.2 2.4-3.2 4.3v136.5c0 1.9.2 4.3 3.2 4.3h20.9c10.6 0 18.6-8.2 22.9-17.1s8-23.9 9.3-29.1h1.9zm69.4-51.7h-39l-11 39.6c-1.7 5.9.2 10 4.3 10l8.9.2v1.9l-16.4-.2-14.3.2v-1.9l5.2-.2c3.9 0 7.3-3.3 8.9-9.7l39.8-138.2h6.7L245.3 271c.7 2.4 1.7 3.7 4.3 3.7l7.6.2v1.9l-21.4-.2-25.4.2v-1.9l11.9-.2c2.1 0 2.8-1.8 2.1-3.7zm-18.9-69.7l-19.5 67.5h37.8zm144-25.8c-3.1 0-7.4 4.1-8.9 9l-38.6 138.9h-6.2l-40.1-143.8c-.7-2.4-1.7-4.1-4.1-4.1l-8.4-.2v-2l22 .2 24.8-.2v2l-11.3.2c-2.1 0-2.8 1.7-2.1 3.6l31.2 114.3 30-108.9c1.5-5.4-.8-9-5.8-9l-9.1-.2v-2l17.7.2 14.5-.2v2zm54.9 77.6l-33-73.7c-.8-2.2-2.1-3.9-5.1-3.9l-9.1-.2v-2l23.5.2 25.9-.2v2l-11.2.2c-2.2 0-2.8 1.7-2.2 3.6l30 67.7 27.4-61.8c2.5-5.2.8-9.5-3.9-9.5l-7.8-.2v-2l16.8.2 13-.2v2l-3.9.2c-4.5 0-8.4 4.3-10.8 9.5l-29.3 65.1v66.2c0 1.9.4 4.3 3.2 4.3l12.1.2v1.9l-25.4-.2-25 .2v-1.9l11.6-.2c2.8 0 3.2-2.4 3.2-4.3z"/><path fill="none" stroke="#fff" stroke-miterlimit="10" stroke-width="1.52" d="M.8.8h508.3v508.27H.8z"/></svg>