<svg xmlns="http://www.w3.org/2000/svg" width="444.3" height="302.3" viewBox="0 0 444.3 302.3"><title>Artboard 1</title><g id="Layer_1" data-name="Layer 1"><path d="M49,279.4H29.8V234.9h3.7V276H49Z" fill="#fff"/><path d="M83.6,279.4h-4L76,265.8H62.3l-3.6,13.6H55l12.4-44.6h3.7Zm-8.5-17-6-22.1-5.9,22.1Z" fill="#fff"/><path d="M102.3,280a16.1,16.1,0,0,1-12.2-5.8l2.5-2.9c2.8,3.1,5.5,5.4,9.8,5.4s7.5-3.2,7.5-8.1-2.2-7.1-8.2-10.2-10.3-6-10.3-13.2c0-5.6,3.8-11,10.7-11,4.8,0,7.8,2.1,10.5,5.1l-2.4,2.9c-2.7-2.9-4.8-4.7-8.5-4.7s-6.5,3.5-6.5,7.3,2.7,7.2,8.3,10.1,10.2,6.1,10.2,13.3S108.7,280,102.3,280Z" fill="#fff"/><path d="M148.8,279.4h-3.7V257.9H127v21.5h-3.7V234.9H127v19.6h18.1V234.9h3.7Z" fill="#fff"/><path d="M205.2,279.8c-3.5,0-6.5-1.4-9.8-4.9-3,3.1-6.5,5-10.4,5-7.2,0-11.6-4.3-11.6-11.3,0-5.5,2.8-9.7,8.5-13.5a23.1,23.1,0,0,1-2.9-11c0-5.6,3.6-10.4,9-10.4s8.6,3.6,8.6,9-3.2,9.2-8.7,12.8a90.6,90.6,0,0,0,8,12.1,39.3,39.3,0,0,0,3.9-11.7l3.9,1.7a41.6,41.6,0,0,1-5.2,13.4c2.7,3.2,5,4.5,8.1,4.8Zm-21.3-21.4c-3.5,2.5-5,5.4-5,9.4s2.7,7.9,7.2,7.9c2.5,0,4.8-1.4,6.8-3.7A106.9,106.9,0,0,1,183.9,258.4Zm4.2-21.1c-2.9,0-4.2,3.1-4.2,6.4a17.7,17.7,0,0,0,2.2,8.8c4-2.6,5.9-5.7,5.9-9.5S190.6,237.3,188.1,237.3Z" fill="#fff"/><path d="M239.1,279.4h-9.5V234.9h9.5c7.4,0,12.6,3.6,12.6,10.9s-3.4,8.9-7.1,10.3c5.1,1.1,8.7,4.3,8.7,10.9C253.3,275.3,247.8,279.4,239.1,279.4Zm-.5-41.3h-5.4v16.6h5.4c6.3,0,9.4-2.8,9.4-8.7S244.7,238.1,238.6,238.1Zm.5,19.7h-5.9v18.4h6.2c6.9,0,10.2-2.7,10.2-9.1S246.1,257.8,239.1,257.8Z" fill="#fff"/><path d="M283,279.4H262.3V234.9h19.9v3.4H266v16.2h13.3v3.4H266V276h17Z" fill="#fff"/><path d="M317.9,279.4H314l-3.6-13.6H296.7L293,279.4h-3.7l12.5-44.6h3.7Zm-8.5-17-5.9-22.1-5.9,22.1Z" fill="#fff"/><path d="M351.2,266.4c0,7.6-4.3,13.5-12.9,13.5s-12.7-5.9-12.7-13.2V234.9h3.7v30.9c0,6.3,2.6,10.8,9.3,10.8s9.2-4.2,9.2-10.1V234.9h3.4Z" fill="#fff"/><path d="M385.1,238.3H373.8v41.1h-3.7V238.3H359v-3.4h26.1Z" fill="#fff"/><path d="M417.7,234.9l-12.1,25.2v19.3h-3.7V260.1l-12-25.2h3.9L404,256.7l9.9-21.8Z" fill="#fff"/><path d="M110,172.5l-65.6-.2-24.8.2v-2l11.3-.2c3,0,3.4-2.3,3.4-4.3V29.6c0-2-.4-4.3-3.4-4.3L19.6,25V23.1l24.8.2,24.4-.2V25l-11,.3c-3,0-3.2,2.3-3.2,4.3V166c0,2,.2,4.3,3.2,4.3H78.7c10.6,0,18.5-8.2,22.9-17s7.9-23.9,9.2-29.1h2Z" fill="#fff"/><path d="M179.4,120.8h-39l-11,39.6c-1.8,5.8.2,9.9,4.3,9.9l8.8.2v2l-16.4-.2-14.2.2v-2l5.2-.2c3.9,0,7.3-3.2,8.8-9.7L165.8,22.4h6.7l40.1,144.3c.6,2.3,1.7,3.6,4.3,3.6l7.5.2v2l-21.3-.2-25.4.2v-2l11.8-.2c2.2,0,2.8-1.7,2.2-3.6Zm-19-69.7L141,118.6h37.7Z" fill="#fff"/><path d="M304.4,25.3c-3,0-7.3,4-8.8,9L257,173.1h-6.3L210.6,29.3c-.6-2.3-1.7-4-4.1-4l-8.4-.3V23.1l22,.2,24.8-.2V25l-11.2.3c-2.1,0-2.8,1.7-2.1,3.6l31.2,114.3,30-108.9c1.5-5.4-.9-9-5.8-9l-9.1-.3V23.1l17.7.2,14.4-.2V25Z" fill="#fff"/><path d="M359.4,102.9l-33-73.8c-.9-2.1-2.1-3.8-5.2-3.8l-9-.3V23.1l23.5.2,25.8-.2V25l-11.2.3c-2.1,0-2.8,1.7-2.1,3.6l29.9,67.7,27.4-61.9c2.6-5.1.9-9.4-3.9-9.4l-7.7-.3V23.1l16.8.2,12.9-.2V25l-3.8.3c-4.6,0-8.5,4.3-10.8,9.4L379.7,99.8V166c0,2,.4,4.3,3.2,4.3l12.1.2v2l-25.5-.2-25,.2v-2l11.7-.2c2.8,0,3.2-2.3,3.2-4.3Z" fill="#fff"/></g></svg>